<svg width="149" height="56" viewBox="0 0 149 56" fill="none" xmlns="http://www.w3.org/2000/svg">
<path fill-rule="evenodd" clip-rule="evenodd" d="M62.0808 32.6865C62.0808 24.0839 68.9057 17 77.4596 17H86.5404C95.0943 17 101.919 23.1585 101.919 31.7612C101.919 32.7194 101.132 33.4963 100.162 33.4963C99.1908 33.4963 98.4039 32.7194 98.4039 31.7612C98.4039 24.9534 93.032 20.4702 86.5404 20.4702H77.4596C70.968 20.4702 65.5961 25.8788 65.5961 32.6865V41.0621C65.5961 42.7331 66.9024 43.9775 68.3788 43.9775C69.4932 43.9775 70.4987 43.2813 70.9377 42.2103C71.0809 41.8612 71.1616 41.4741 71.1616 41.0621V32.6865C71.1616 29.2207 73.9208 26.301 77.4596 26.301H86.5404C90.0791 26.301 92.8384 29.2207 92.8384 32.6865V41.0621C92.8384 41.4741 92.9191 41.8612 93.0623 42.2103C93.5013 43.2813 94.5068 43.9775 95.6212 43.9775C97.0976 43.9775 98.4039 42.7331 98.4039 41.0621V40.9977C98.4039 38.8675 99.4845 36.8787 101.282 35.7003C104.244 33.7585 108.163 34.6694 110.022 37.6449C111.859 40.584 111.044 44.5098 108.122 46.4251L105 48.4715C104.184 49.0061 103.355 49.5097 102.514 49.9822C101.569 50.5132 101.011 51.4386 101.011 52.3829C101.011 55.4622 97.2262 57.2976 94.8876 54.9023C94.1858 54.1835 93.0745 53.8836 91.9596 54.1574C85.416 55.7646 78.584 55.7646 72.0404 54.1574C70.9255 53.8836 69.8142 54.1835 69.1124 54.9023C66.7738 57.2976 62.9889 55.4622 62.9889 52.3829C62.9889 51.4386 62.4307 50.5132 61.4857 49.9822C60.6446 49.5097 59.8156 49.0061 59.0001 48.4715L55.8783 46.4251C52.9565 44.5098 52.1414 40.584 53.9779 37.6449C55.7067 34.8783 59.2156 33.8966 62.0808 35.3332V32.6865ZM62.0808 39.4483L60.7733 38.5912C59.5114 37.764 57.8139 38.1158 56.9697 39.4668C56.1028 40.8542 56.5205 42.6805 57.8228 43.5342L60.9447 45.5806C61.693 46.0712 62.4534 46.5331 63.2244 46.9663C65.1516 48.0491 66.5041 50.0647 66.5041 52.3829C66.5041 52.4202 66.5094 52.4424 66.5129 52.4536C66.5165 52.4651 66.5205 52.4723 66.524 52.4775C66.5319 52.4889 66.5451 52.5003 66.5616 52.5073L66.5656 52.5089C66.5698 52.5054 66.5751 52.5006 66.5814 52.4941C68.2485 50.7866 70.6914 50.2501 72.8891 50.7899C78.8754 52.2602 85.1246 52.2602 91.1109 50.7899C93.3086 50.2501 95.7515 50.7866 97.4186 52.4941C97.4249 52.5006 97.4302 52.5054 97.4344 52.5089L97.4383 52.5073C97.4549 52.5003 97.4681 52.4889 97.476 52.4775C97.478 52.4745 97.4802 52.4708 97.4824 52.466C97.484 52.4625 97.4856 52.4584 97.4871 52.4536C97.4906 52.4424 97.4959 52.4202 97.4959 52.3829C97.4959 50.0647 98.8484 48.0491 100.776 46.9663C101.547 46.5331 102.307 46.0712 103.055 45.5806L106.177 43.5342C107.479 42.6805 107.897 40.8542 107.03 39.4668C106.186 38.1158 104.489 37.764 103.227 38.5912C102.41 39.1265 101.919 40.03 101.919 40.9977V41.0621C101.919 44.528 99.1599 47.4477 95.6212 47.4477C93.5508 47.4477 91.7404 46.4407 90.6003 44.9167C84.9672 46.4436 79.0328 46.4436 73.3996 44.9167C72.2596 46.4407 70.4492 47.4477 68.3788 47.4477C64.8401 47.4477 62.0808 44.528 62.0808 41.0621V39.4483ZM74.6499 41.655C79.4717 42.9039 84.5283 42.9039 89.3501 41.655C89.3323 41.4596 89.3232 41.2618 89.3232 41.0621V32.6865C89.3232 31.0156 88.0168 29.7712 86.5404 29.7712H77.4596C75.9832 29.7712 74.6768 31.0156 74.6768 32.6865V41.0621C74.6768 41.2618 74.6677 41.4596 74.6499 41.655Z" fill="#0D1321"/>
<path d="M0 36.7H4.32911C4.46582 37.075 4.67089 37.3975 4.9443 37.6675C5.58228 38.2975 6.47848 38.6125 7.63291 38.6125C8.43797 38.6125 9.03797 38.485 9.43291 38.23C9.82785 37.975 10.0253 37.6525 10.0253 37.2625C10.0253 37.0975 9.97975 36.9475 9.88861 36.8125C9.81266 36.6625 9.67595 36.5275 9.47848 36.4075C9.2962 36.2875 9.11392 36.19 8.93164 36.115C8.74937 36.025 8.48354 35.935 8.13418 35.845C7.8 35.74 7.51899 35.6575 7.29114 35.5975C7.06329 35.5375 6.72911 35.455 6.28861 35.35C5.86329 35.245 5.53671 35.1625 5.30886 35.1025C3.86582 34.7125 2.71139 34.1725 1.84557 33.4825C0.994937 32.7925 0.56962 31.8025 0.56962 30.5125C0.56962 29.1475 1.16203 27.985 2.34684 27.025C3.54684 26.05 5.15696 25.5625 7.17721 25.5625C9.75949 25.5625 11.6886 26.3875 12.9646 28.0375C13.5266 28.7575 13.9139 29.5825 14.1266 30.5125H9.79747C9.70633 30.2725 9.55443 30.0475 9.34177 29.8375C8.8557 29.3875 8.13418 29.1625 7.17721 29.1625C6.43291 29.1625 5.88608 29.275 5.53671 29.5C5.18734 29.71 5.01266 29.9725 5.01266 30.2875C5.01266 30.7075 5.26329 31.045 5.76456 31.3C6.28101 31.54 7.03291 31.7725 8.02025 31.9975C8.59747 32.1325 9.00759 32.2375 9.25063 32.3125C9.50886 32.3725 9.91139 32.4925 10.4582 32.6725C11.0203 32.8375 11.4456 32.995 11.7342 33.145C12.0228 33.295 12.3646 33.505 12.7595 33.775C13.1696 34.03 13.4734 34.3075 13.6709 34.6075C13.8835 34.8925 14.0658 35.245 14.2177 35.665C14.3848 36.085 14.4684 36.5425 14.4684 37.0375C14.4684 38.4775 13.8684 39.7 12.6684 40.705C11.4684 41.71 9.78987 42.2125 7.63291 42.2125C4.92911 42.2125 2.8481 41.2975 1.38987 39.4675C0.767089 38.6725 0.303797 37.75 0 36.7Z" fill="#0D1321"/>
<path d="M16.6883 40.4125C15.6705 39.2725 15.1617 37.7725 15.1617 35.9125C15.1617 34.0525 15.6705 32.56 16.6883 31.435C17.706 30.295 18.944 29.725 20.4022 29.725C21.344 29.725 22.2326 30.0475 23.068 30.6925C23.4174 30.9775 23.706 31.2925 23.9338 31.6375H24.1617V30.0625H28.0351V41.7625H24.1617V40.1875H23.9338C23.7212 40.5475 23.4326 40.87 23.068 41.155C22.2478 41.785 21.3592 42.1 20.4022 42.1C18.944 42.1 17.706 41.5375 16.6883 40.4125ZM19.8326 33.7525C19.3769 34.2625 19.149 34.9825 19.149 35.9125C19.149 36.8425 19.3769 37.5625 19.8326 38.0725C20.2883 38.5825 20.8959 38.8375 21.6554 38.8375C22.4149 38.8375 23.0224 38.5825 23.4781 38.0725C23.9338 37.5625 24.1617 36.8425 24.1617 35.9125C24.1617 34.9825 23.9338 34.2625 23.4781 33.7525C23.0224 33.2425 22.4149 32.9875 21.6554 32.9875C20.8959 32.9875 20.2883 33.2425 19.8326 33.7525Z" fill="#0D1321"/>
<path d="M29.6194 41.7625V30.0625H33.4928V31.6375H33.7206C33.9333 31.2625 34.1915 30.9475 34.4953 30.6925C35.2396 30.0475 36.1206 29.725 37.1383 29.725C38.3687 29.725 39.3637 30.085 40.1232 30.805C40.4421 31.105 40.7004 31.4575 40.8978 31.8625H41.1257C41.308 31.4725 41.5586 31.12 41.8776 30.805C42.6067 30.085 43.5713 29.725 44.7713 29.725C46.1687 29.725 47.2548 30.145 48.0295 30.985C48.8194 31.81 49.2143 33.0025 49.2143 34.5625V41.7625H45.3409V35.125C45.3409 33.7 44.7333 32.9875 43.5181 32.9875C42.8649 32.9875 42.3409 33.205 41.9459 33.64C41.551 34.075 41.3535 34.6825 41.3535 35.4625V41.7625H37.4801V35.125C37.4801 33.7 36.8725 32.9875 35.6573 32.9875C35.0042 32.9875 34.4801 33.205 34.0852 33.64C33.6902 34.075 33.4928 34.6825 33.4928 35.4625V41.7625H29.6194Z" fill="#0D1321"/>
<path d="M115.291 39.7825C113.62 38.1475 112.784 36.1825 112.784 33.8875C112.784 31.5925 113.62 29.635 115.291 28.015C116.977 26.38 119.103 25.5625 121.671 25.5625C124.238 25.5625 126.357 26.38 128.028 28.015C129.714 29.635 130.557 31.5925 130.557 33.8875C130.557 36.1825 129.714 38.1475 128.028 39.7825C126.357 41.4025 124.238 42.2125 121.671 42.2125C119.103 42.2125 116.977 41.4025 115.291 39.7825ZM118.458 30.625C117.638 31.45 117.228 32.5375 117.228 33.8875C117.228 35.2375 117.638 36.325 118.458 37.15C119.278 37.975 120.349 38.3875 121.671 38.3875C122.992 38.3875 124.063 37.975 124.883 37.15C125.703 36.325 126.114 35.2375 126.114 33.8875C126.114 32.5375 125.703 31.45 124.883 30.625C124.063 29.8 122.992 29.3875 121.671 29.3875C120.349 29.3875 119.278 29.8 118.458 30.625Z" fill="#0D1321"/>
<path d="M131.801 41.7625V26.0125H135.674V38.725H138.295V41.7625H131.801Z" fill="#0D1321"/>
<path d="M138.858 26.9125C138.858 26.3725 139.063 25.9225 139.473 25.5625C139.883 25.1875 140.4 25 141.023 25C141.645 25 142.162 25.1875 142.572 25.5625C142.982 25.9225 143.187 26.3725 143.187 26.9125C143.187 27.4375 142.982 27.8875 142.572 28.2625C142.162 28.6375 141.645 28.825 141.023 28.825C140.4 28.825 139.883 28.6375 139.473 28.2625C139.063 27.8875 138.858 27.4375 138.858 26.9125ZM139.086 41.7625V30.0625H142.959V41.7625H139.086Z" fill="#0D1321"/>
<path d="M76 20H74C73.7348 20 73.4804 19.8946 73.2929 19.7071C73.1054 19.5196 73 19.2652 73 19L72 9C72 8.73478 72.1054 8.48043 72.2929 8.29289C72.4804 8.10536 72.7348 8 73 8C73.2652 8 73.5196 8.10536 73.7071 8.29289C73.8946 8.48043 74 8.73478 74 9V9.5C74 10.4283 74.3687 11.3185 75.0251 11.9749C75.6815 12.6313 76.5717 13 77.5 13C78.4283 13 79.3185 12.6313 79.9749 11.9749C80.6313 11.3185 81 10.4283 81 9.5V9C81 8.73478 81.1054 8.48043 81.2929 8.29289C81.4804 8.10536 81.7348 8 82 8C82.2652 8 82.5196 8.10536 82.7071 8.29289C82.8946 8.48043 83 8.73478 83 9V9.5C82.9974 10.9579 82.417 12.3553 81.3862 13.3862C80.3553 14.417 78.9579 14.9974 77.5 15C76.2217 15.0035 75.2828 14.3175 74.3 13.5L75 18H76C76.2652 18 76.5196 18.1054 76.7071 18.2929C76.8946 18.4804 77 18.7348 77 19C77 19.2652 76.8946 19.5196 76.7071 19.7071C76.5196 19.8946 76.2652 20 76 20Z" fill="#0D1321"/>
<path d="M89.5 13.2929L89 18L90 20C90.2652 20 90.5196 19.8946 90.7071 19.7071C90.8946 19.5196 91 19.2652 91 19L92 9C92 8.73478 91.8946 8.48043 91.7071 8.29289C91.5196 8.10536 91.2652 8 91 8C90.7348 8 90.4804 8.10536 90.2929 8.29289C90.1054 8.48043 90 8.73478 90 9V9.5C90 10.4283 89.6313 11.3185 88.9749 11.9749C88.3185 12.6313 87.4283 13 86.5 13C86.2348 13 85.9804 13.1054 85.7929 13.2929C85.6054 13.4804 85.5 13.7348 85.5 14C85.5 14.2652 85.6054 14.5196 85.7929 14.7071C85.9804 14.8946 86.2348 15 86.5 15C87.7783 15.0035 88.5172 14.1104 89.5 13.2929Z" fill="#0D1321"/>
<path d="M82 9C81.4067 9 80.8266 8.82405 80.3333 8.49441C79.8399 8.16477 79.4554 7.69623 79.2284 7.14805C79.0013 6.59987 78.9419 5.99667 79.0576 5.41473C79.1734 4.83279 79.4591 4.29824 79.8787 3.87868C80.2982 3.45912 80.8328 3.1734 81.4147 3.05765C81.9967 2.94189 82.5999 3.0013 83.1481 3.22836C83.6962 3.45543 84.1648 3.83994 84.4944 4.33329C84.8241 4.82664 85 5.40666 85 6C85 6.79565 84.6839 7.55871 84.1213 8.12132C83.5587 8.68393 82.7957 9 82 9ZM82 5C81.8022 5 81.6089 5.05865 81.4444 5.16853C81.28 5.27841 81.1518 5.43459 81.0761 5.61732C81.0004 5.80004 80.9806 6.00111 81.0192 6.19509C81.0578 6.38907 81.153 6.56726 81.2929 6.70711C81.4327 6.84696 81.6109 6.9422 81.8049 6.98079C81.9989 7.01937 82.2 6.99957 82.3827 6.92388C82.5654 6.84819 82.7216 6.72002 82.8315 6.55557C82.9414 6.39112 83 6.19778 83 6C83 5.73478 82.8946 5.48043 82.7071 5.29289C82.5196 5.10536 82.2652 5 82 5Z" fill="#0D1321" stroke-width="0.5"/>
<path d="M91 10C90.6044 10 90.2178 9.8827 89.8889 9.66294C89.56 9.44318 89.3036 9.13082 89.1522 8.76537C89.0009 8.39992 88.9613 7.99778 89.0384 7.60982C89.1156 7.22186 89.3061 6.86549 89.5858 6.58579C89.8655 6.30608 90.2219 6.1156 90.6098 6.03843C90.9978 5.96126 91.3999 6.00087 91.7654 6.15224C92.1308 6.30362 92.4432 6.55996 92.6629 6.88886C92.8827 7.21776 93 7.60444 93 8C93 8.53043 92.7893 9.03914 92.4142 9.41421C92.0391 9.78929 91.5304 10 91 10Z" fill="#0D1321"/>
<path d="M73 10C72.6044 10 72.2178 9.8827 71.8889 9.66294C71.56 9.44318 71.3036 9.13082 71.1522 8.76537C71.0009 8.39992 70.9613 7.99778 71.0384 7.60982C71.1156 7.22186 71.3061 6.86549 71.5858 6.58579C71.8655 6.30608 72.2219 6.1156 72.6098 6.03843C72.9978 5.96126 73.3999 6.00087 73.7654 6.15224C74.1308 6.30362 74.4432 6.55996 74.6629 6.88886C74.8827 7.21776 75 7.60444 75 8C75 8.53043 74.7893 9.03914 74.4142 9.41421C74.0391 9.78929 73.5304 10 73 10V10Z" fill="#0D1321"/>
<path d="M86.5 15C85.0421 14.9974 83.6447 14.417 82.6138 13.3862C81.583 12.3553 81.0026 10.9579 81 9.5V9C81 8.73478 81.1054 8.48043 81.2929 8.29289C81.4804 8.10536 81.7348 8 82 8C82.2652 8 82.5196 8.10536 82.7071 8.29289C82.8946 8.48043 83 8.73478 83 9V9.5C83 10.4283 83.3687 11.3185 84.0251 11.9749C84.6815 12.6313 85.5717 13 86.5 13C86.7652 13 87.0196 13.1054 87.2071 13.2929C87.3946 13.4804 87.5 13.7348 87.5 14C87.5 14.2652 87.3946 14.5196 87.2071 14.7071C87.0196 14.8946 86.7652 15 86.5 15Z" fill="#0D1321"/>
</svg>
