<svg width="140" height="180" viewBox="0 0 140 180" fill="none" xmlns="http://www.w3.org/2000/svg">
<path d="M82.5229 12.2993C87.1523 9.63744 92.8477 9.63744 97.4771 12.2993L122.477 26.6743C127.131 29.3503 130 34.3095 130 39.6779V68.3221C130 73.6905 127.131 78.6497 122.477 81.3257L97.4771 95.7007C92.8477 98.3626 87.1523 98.3626 82.5229 95.7007L57.5229 81.3257C52.869 78.6497 50 73.6905 50 68.3221V39.6779C50 34.3095 52.869 29.3503 57.5229 26.6743L82.5229 12.2993Z" fill="url(#paint0_linear)"/>
<g filter="url(#filter0_bd)">
<path d="M62.5229 24.2993C67.1523 21.6374 72.8477 21.6374 77.4771 24.2993L102.477 38.6743C107.131 41.3503 110 46.3095 110 51.6779V80.3221C110 85.6905 107.131 90.6497 102.477 93.3257L77.4771 107.701C72.8477 110.363 67.1523 110.363 62.5229 107.701L37.5229 93.3257C32.869 90.6497 30 85.6905 30 80.3221V51.6779C30 46.3095 32.869 41.3503 37.5229 38.6743L62.5229 24.2993Z" fill="url(#paint1_radial)" fill-opacity="0.3"/>
<path d="M77.2278 24.7328L102.228 39.1078C106.727 41.6946 109.5 46.4884 109.5 51.6779V80.3221C109.5 85.5116 106.727 90.3054 102.228 92.8922L77.2278 107.267C72.7528 109.84 67.2472 109.84 62.7722 107.267L37.7722 92.8922C33.2734 90.3054 30.5 85.5116 30.5 80.3221V51.6779C30.5 46.4884 33.2734 41.6946 37.7722 39.1078L62.7722 24.7328C67.2472 22.1596 72.7528 22.1596 77.2278 24.7328Z" stroke="url(#paint2_linear)"/>
</g>
<rect x="45" y="55" width="50" height="20" rx="10" stroke="white" stroke-width="10"/>
<path d="M64.4446 57.2012C63.7271 57.6154 63.4813 58.5328 63.8955 59.2503L71.3955 72.2406C71.8098 72.9581 72.7271 73.2039 73.4446 72.7897C74.162 72.3755 74.4078 71.4581 73.9936 70.7406L66.4936 57.7502C66.0794 57.0328 65.162 56.787 64.4446 57.2012Z" fill="white"/>
<path d="M57.2129 57.2012C56.4955 57.6154 56.2497 58.5328 56.6639 59.2503L64.1639 72.2406C64.5781 72.9581 65.4955 73.2039 66.2129 72.7897C66.9303 72.3755 67.1762 71.4581 66.7619 70.7406L59.2619 57.7502C58.8477 57.0328 57.9303 56.787 57.2129 57.2012Z" fill="white"/>
<path d="M49.9817 57.2012C49.2643 57.6154 49.0184 58.5328 49.4327 59.2503L56.9327 72.2406C57.3469 72.9581 58.2643 73.2039 58.9817 72.7897C59.6991 72.3755 59.9449 71.4581 59.5307 70.7406L52.0307 57.7502C51.6165 57.0328 50.6991 56.787 49.9817 57.2012Z" fill="white"/>
<path d="M42.7503 57.2012C42.0328 57.6154 41.787 58.5328 42.2012 59.2503L49.7012 72.2406C50.1154 72.9581 51.0328 73.2039 51.7502 72.7897C52.4677 72.3755 52.7135 71.4581 52.2993 70.7406L44.7993 57.7502C44.3851 57.0328 43.4677 56.787 42.7503 57.2012Z" fill="white"/>
<path d="M71.2129 57.2012C70.4955 57.6154 70.2497 58.5328 70.6639 59.2503L75.6923 67.9597C76.1065 68.6771 77.0239 68.923 77.7413 68.5087C78.4587 68.0945 78.7046 67.1771 78.2903 66.4597L73.2619 57.7502C72.8477 57.0328 71.9303 56.787 71.2129 57.2012Z" fill="white"/>
<path d="M77 38C78.1046 38 79 38.8954 79 40L79 46C79 47.1046 78.1046 48 77 48C75.8954 48 75 47.1046 75 46V40C75 38.8954 75.8954 38 77 38Z" fill="white"/>
<path d="M77 56C78.1046 56 79 56.8954 79 58L79 72C79 73.1046 78.1046 74 77 74C75.8954 74 75 73.1046 75 72V58C75 56.8954 75.8954 56 77 56Z" fill="white"/>
<path d="M77 82C78.1046 82 79 82.8954 79 84L79 90C79 91.1046 78.1046 92 77 92C75.8954 92 75 91.1046 75 90V84C75 82.8954 75.8954 82 77 82Z" fill="white"/>
<defs>
<filter id="filter0_bd" x="0" y="2.30273" width="140" height="177.394" filterUnits="userSpaceOnUse" color-interpolation-filters="sRGB">
<feFlood flood-opacity="0" result="BackgroundImageFix"/>
<feGaussianBlur in="BackgroundImage" stdDeviation="10"/>
<feComposite in2="SourceAlpha" operator="in" result="effect1_backgroundBlur"/>
<feColorMatrix in="SourceAlpha" type="matrix" values="0 0 0 0 0 0 0 0 0 0 0 0 0 0 0 0 0 0 127 0"/>
<feOffset dy="40"/>
<feGaussianBlur stdDeviation="15"/>
<feColorMatrix type="matrix" values="0 0 0 0 0.979167 0 0 0 0 0.941088 0 0 0 0 0.864931 0 0 0 0.15 0"/>
<feBlend mode="normal" in2="effect1_backgroundBlur" result="effect2_dropShadow"/>
<feBlend mode="normal" in="SourceGraphic" in2="effect2_dropShadow" result="shape"/>
</filter>
<linearGradient id="paint0_linear" x1="50" y1="54" x2="130" y2="54" gradientUnits="userSpaceOnUse">
<stop stop-color="#FF0844"/>
<stop offset="1" stop-color="#FFB199"/>
</linearGradient>
<radialGradient id="paint1_radial" cx="0" cy="0" r="1" gradientUnits="userSpaceOnUse" gradientTransform="translate(110 20) rotate(131.009) scale(121.918 90.3255)">
<stop stop-color="white" stop-opacity="0.67"/>
<stop offset="1" stop-color="white" stop-opacity="0.7"/>
</radialGradient>
<linearGradient id="paint2_linear" x1="30" y1="112" x2="110" y2="112" gradientUnits="userSpaceOnUse">
<stop stop-color="white" stop-opacity="0.3"/>
<stop offset="1" stop-color="white" stop-opacity="0.2"/>
</linearGradient>
</defs>
</svg>
