<svg width="140" height="180" viewBox="0 0 140 180" fill="none" xmlns="http://www.w3.org/2000/svg">
<rect x="50" y="10" width="80" height="80" rx="40" fill="url(#paint0_linear)"/>
<g filter="url(#filter0_bd)">
<rect x="30" y="30" width="80" height="80" rx="40" fill="url(#paint1_radial)" fill-opacity="0.3"/>
</g>
<path fill-rule="evenodd" clip-rule="evenodd" d="M70 92C82.1503 92 92 82.1503 92 70C92 57.8497 82.1503 48 70 48C57.8497 48 48 57.8497 48 70C48 82.1503 57.8497 92 70 92ZM70 102C87.6731 102 102 87.6731 102 70C102 52.3269 87.6731 38 70 38C52.3269 38 38 52.3269 38 70C38 87.6731 52.3269 102 70 102Z" fill="white"/>
<path fill-rule="evenodd" clip-rule="evenodd" d="M68 55C66.3431 55 65 56.3431 65 58V68V72C65 73.6569 66.3431 75 68 75H72H82C83.6569 75 85 73.6569 85 72V68C85 66.3431 83.6569 65 82 65H75V58C75 56.3431 73.6569 55 72 55H68Z" fill="white"/>
<defs>
<filter id="filter0_bd" x="0" y="10" width="140" height="170" filterUnits="userSpaceOnUse" color-interpolation-filters="sRGB">
<feFlood flood-opacity="0" result="BackgroundImageFix"/>
<feGaussianBlur in="BackgroundImage" stdDeviation="10"/>
<feComposite in2="SourceAlpha" operator="in" result="effect1_backgroundBlur"/>
<feColorMatrix in="SourceAlpha" type="matrix" values="0 0 0 0 0 0 0 0 0 0 0 0 0 0 0 0 0 0 127 0"/>
<feOffset dy="40"/>
<feGaussianBlur stdDeviation="15"/>
<feColorMatrix type="matrix" values="0 0 0 0 0.979167 0 0 0 0 0.941088 0 0 0 0 0.864931 0 0 0 0.15 0"/>
<feBlend mode="normal" in2="effect1_backgroundBlur" result="effect2_dropShadow"/>
<feBlend mode="normal" in="SourceGraphic" in2="effect2_dropShadow" result="shape"/>
</filter>
<linearGradient id="paint0_linear" x1="50" y1="50" x2="130" y2="50" gradientUnits="userSpaceOnUse">
<stop stop-color="#FF0844"/>
<stop offset="1" stop-color="#FFB199"/>
</linearGradient>
<radialGradient id="paint1_radial" cx="0" cy="0" r="1" gradientUnits="userSpaceOnUse" gradientTransform="translate(110 30) rotate(135) scale(113.137 84.64)">
<stop stop-color="white" stop-opacity="0.67"/>
<stop offset="1" stop-color="white" stop-opacity="0.7"/>
</radialGradient>
</defs>
</svg>
