<svg width="140" height="181" viewBox="0 0 140 181" fill="none" xmlns="http://www.w3.org/2000/svg">
<path d="M88.8268 12.6058C90.6712 11.0912 93.3288 11.0912 95.1732 12.6058L100.746 17.1818C101.719 17.981 102.958 18.3835 104.215 18.309L111.413 17.8823C113.795 17.7411 115.945 19.3032 116.547 21.6126L118.365 28.5901C118.683 29.8086 119.449 30.8625 120.509 31.5411L126.583 35.4267C128.594 36.7127 129.415 39.2403 128.545 41.4624L125.914 48.1762C125.455 49.3487 125.455 50.6513 125.914 51.8238L128.545 58.5376C129.415 60.7597 128.594 63.2873 126.583 64.5733L120.509 68.4589C119.449 69.1375 118.683 70.1914 118.365 71.4099L116.547 78.3874C115.945 80.6968 113.795 82.2589 111.413 82.1177L104.215 81.691C102.958 81.6165 101.719 82.019 100.746 82.8181L95.1732 87.3942C93.3288 88.9088 90.6712 88.9088 88.8268 87.3942L83.2544 82.8181C82.2812 82.019 81.0424 81.6165 79.7853 81.691L72.5874 82.1177C70.205 82.2589 68.055 80.6968 67.4531 78.3874L65.6346 71.4099C65.317 70.1914 64.5514 69.1375 63.4906 68.4589L57.4165 64.5733C55.4062 63.2873 54.5849 60.7597 55.4554 58.5376L58.0855 51.8238C58.5449 50.6513 58.5449 49.3487 58.0855 48.1762L55.4554 41.4624C54.5849 39.2403 55.4062 36.7127 57.4165 35.4267L63.4906 31.5411C64.5514 30.8625 65.317 29.8086 65.6346 28.5901L67.4531 21.6126C68.055 19.3032 70.205 17.7411 72.5874 17.8823L79.7853 18.309C81.0424 18.3835 82.2812 17.981 83.2544 17.1819L88.8268 12.6058Z" fill="url(#paint0_linear)"/>
<g filter="url(#filter0_bd)">
<path d="M62.1859 30.4169C66.7277 26.6872 73.2723 26.6872 77.8141 30.4169V30.4169C80.2106 32.3848 83.2613 33.3761 86.3568 33.1926V33.1926C92.2235 32.8448 97.5182 36.6916 99.0003 42.3786V42.3786C99.7824 45.3793 101.668 47.9745 104.28 49.6455V49.6455C109.231 52.8125 111.253 59.0367 109.109 64.5088V64.5088C107.978 67.3961 107.978 70.6039 109.109 73.4912V73.4912C111.253 78.9633 109.231 85.1875 104.28 88.3545V88.3545C101.668 90.0255 99.7824 92.6207 99.0003 95.6214V95.6214C97.5182 101.308 92.2235 105.155 86.3568 104.807V104.807C83.2613 104.624 80.2106 105.615 77.8141 107.583V107.583C73.2723 111.313 66.7277 111.313 62.1859 107.583V107.583C59.7894 105.615 56.7387 104.624 53.6432 104.807V104.807C47.7765 105.155 42.4818 101.308 40.9997 95.6214V95.6214C40.2176 92.6207 38.3322 90.0255 35.72 88.3545V88.3545C30.7693 85.1875 28.7469 78.9633 30.8906 73.4912V73.4912C32.0217 70.6039 32.0217 67.3961 30.8906 64.5088V64.5088C28.7469 59.0367 30.7693 52.8125 35.72 49.6455V49.6455C38.3322 47.9745 40.2176 45.3793 40.9997 42.3786V42.3786C42.4818 36.6916 47.7765 32.8448 53.6432 33.1926V33.1926C56.7387 33.3761 59.7894 32.3848 62.1859 30.4169V30.4169Z" fill="url(#paint1_radial)" fill-opacity="0.3"/>
<path d="M53.6136 33.6917C56.8348 33.8827 60.0094 32.8512 62.5032 30.8033C66.8606 27.225 73.1394 27.225 77.4968 30.8033C79.9906 32.8512 83.1652 33.8827 86.3864 33.6917C92.0149 33.3581 97.0945 37.0486 98.5165 42.5047C99.3303 45.6273 101.292 48.3278 104.011 50.0667C108.76 53.1051 110.7 59.0766 108.644 64.3264C107.467 67.331 107.467 70.669 108.644 73.6736C110.7 78.9234 108.76 84.8949 104.011 87.9333C101.292 89.6722 99.3303 92.3727 98.5165 95.4953C97.0945 100.951 92.0149 104.642 86.3864 104.308C83.1652 104.117 79.9906 105.149 77.4968 107.197C73.1394 110.775 66.8606 110.775 62.5032 107.197C60.0094 105.149 56.8348 104.117 53.6136 104.308C47.9851 104.642 42.9055 100.951 41.4835 95.4953C40.6697 92.3727 38.7077 89.6722 35.9894 87.9333C31.2398 84.8949 29.2995 78.9234 31.3561 73.6736C32.5332 70.669 32.5332 67.331 31.3561 64.3264C29.2995 59.0766 31.2398 53.1051 35.9894 50.0667C38.7077 48.3278 40.6697 45.6273 41.4835 42.5047C42.9055 37.0486 47.9851 33.3581 53.6136 33.6917Z" stroke="url(#paint2_linear)"/>
</g>
<path d="M65.7538 50.8294C67.7102 47.6828 72.2898 47.6828 74.2462 50.8294L77.3024 55.7448C77.9907 56.8519 79.0842 57.6464 80.3498 57.959L85.9692 59.3466C89.5663 60.2349 90.9814 64.5903 88.5934 67.4233L84.863 71.8489C84.0228 72.8457 83.6051 74.1312 83.6989 75.4314L84.1157 81.2045C84.3824 84.9001 80.6775 87.5919 77.2452 86.1962L71.8834 84.0159C70.6758 83.5248 69.3242 83.5248 68.1166 84.0159L62.7548 86.1962C59.3225 87.5919 55.6176 84.9001 55.8843 81.2045L56.3011 75.4314C56.3949 74.1312 55.9772 72.8457 55.137 71.8489L51.4066 67.4233C49.0186 64.5903 50.4337 60.2349 54.0308 59.3466L59.6502 57.959C60.9158 57.6464 62.0093 56.8519 62.6976 55.7448L65.7538 50.8294Z" fill="white"/>
<defs>
<filter id="filter0_bd" x="0.0410156" y="7.61963" width="139.918" height="172.761" filterUnits="userSpaceOnUse" color-interpolation-filters="sRGB">
<feFlood flood-opacity="0" result="BackgroundImageFix"/>
<feGaussianBlur in="BackgroundImage" stdDeviation="10"/>
<feComposite in2="SourceAlpha" operator="in" result="effect1_backgroundBlur"/>
<feColorMatrix in="SourceAlpha" type="matrix" values="0 0 0 0 0 0 0 0 0 0 0 0 0 0 0 0 0 0 127 0"/>
<feOffset dy="40"/>
<feGaussianBlur stdDeviation="15"/>
<feColorMatrix type="matrix" values="0 0 0 0 0.979167 0 0 0 0 0.941088 0 0 0 0 0.864931 0 0 0 0.15 0"/>
<feBlend mode="normal" in2="effect1_backgroundBlur" result="effect2_dropShadow"/>
<feBlend mode="normal" in="SourceGraphic" in2="effect2_dropShadow" result="shape"/>
</filter>
<linearGradient id="paint0_linear" x1="52" y1="50" x2="132" y2="50" gradientUnits="userSpaceOnUse">
<stop stop-color="#FF0844"/>
<stop offset="1" stop-color="#FFB199"/>
</linearGradient>
<radialGradient id="paint1_radial" cx="0" cy="0" r="1" gradientUnits="userSpaceOnUse" gradientTransform="translate(115 24) rotate(135) scale(127.279 95.2199)">
<stop stop-color="white" stop-opacity="0.67"/>
<stop offset="1" stop-color="white" stop-opacity="0.7"/>
</radialGradient>
<linearGradient id="paint2_linear" x1="25" y1="114" x2="115" y2="114" gradientUnits="userSpaceOnUse">
<stop stop-color="white" stop-opacity="0.3"/>
<stop offset="1" stop-color="white" stop-opacity="0.2"/>
</linearGradient>
</defs>
</svg>
