<svg width="150" height="180" viewBox="0 0 150 180" fill="none" xmlns="http://www.w3.org/2000/svg">
<path d="M74.0186 17.4224C79.7961 7.44314 94.2039 7.44313 99.9814 17.4224L128.965 67.4845C134.754 77.4844 127.538 90 115.983 90H58.0167C46.4617 90 39.2458 77.4844 45.0353 67.4845L74.0186 17.4224Z" fill="url(#paint0_linear)"/>
<g filter="url(#filter0_bd)">
<path d="M62.0186 37.4224C67.7961 27.4431 82.2039 27.4431 87.9814 37.4224L116.965 87.4845C122.754 97.4844 115.538 110 103.983 110H46.0167C34.4617 110 27.2458 97.4844 33.0353 87.4845L62.0186 37.4224Z" fill="url(#paint1_radial)" fill-opacity="0.3"/>
<path d="M87.5487 37.6729L116.532 87.735C122.128 97.4016 115.153 109.5 103.983 109.5H46.0167C34.8469 109.5 27.8715 97.4016 33.468 87.735L62.4513 37.6729C68.0362 28.0263 81.9638 28.0263 87.5487 37.6729Z" stroke="url(#paint2_linear)"/>
</g>
<path fill-rule="evenodd" clip-rule="evenodd" d="M65 56C59.4772 56 55 60.4772 55 66V73.2727C55 78.4581 58.9467 82.7216 64 83.2234V79C64 71.268 70.268 65 78 65H82.2234C81.7216 59.9467 77.4581 56 72.2727 56H65Z" fill="white"/>
<rect x="72" y="73" width="19" height="19" rx="6" stroke="white" stroke-width="8"/>
<defs>
<filter id="filter0_bd" x="0.994141" y="9.93799" width="148.011" height="170.062" filterUnits="userSpaceOnUse" color-interpolation-filters="sRGB">
<feFlood flood-opacity="0" result="BackgroundImageFix"/>
<feGaussianBlur in="BackgroundImage" stdDeviation="10"/>
<feComposite in2="SourceAlpha" operator="in" result="effect1_backgroundBlur"/>
<feColorMatrix in="SourceAlpha" type="matrix" values="0 0 0 0 0 0 0 0 0 0 0 0 0 0 0 0 0 0 127 0"/>
<feOffset dy="40"/>
<feGaussianBlur stdDeviation="15"/>
<feColorMatrix type="matrix" values="0 0 0 0 0.979167 0 0 0 0 0.941088 0 0 0 0 0.864931 0 0 0 0.15 0"/>
<feBlend mode="normal" in2="effect1_backgroundBlur" result="effect2_dropShadow"/>
<feBlend mode="normal" in="SourceGraphic" in2="effect2_dropShadow" result="shape"/>
</filter>
<linearGradient id="paint0_linear" x1="32" y1="42.5" x2="142" y2="42.5" gradientUnits="userSpaceOnUse">
<stop stop-color="#FF0844"/>
<stop offset="1" stop-color="#FFB199"/>
</linearGradient>
<radialGradient id="paint1_radial" cx="0" cy="0" r="1" gradientUnits="userSpaceOnUse" gradientTransform="translate(130 15) rotate(139.185) scale(145.344 107.577)">
<stop stop-color="white" stop-opacity="0.67"/>
<stop offset="1" stop-color="white" stop-opacity="0.7"/>
</radialGradient>
<linearGradient id="paint2_linear" x1="20" y1="110" x2="130" y2="110" gradientUnits="userSpaceOnUse">
<stop stop-color="white" stop-opacity="0.3"/>
<stop offset="1" stop-color="white" stop-opacity="0.2"/>
</linearGradient>
</defs>
</svg>
