<svg width="29" height="12" viewBox="0 0 29 12" fill="none" xmlns="http://www.w3.org/2000/svg">
<path fill-rule="evenodd" clip-rule="evenodd" d="M20 1.95857C20 1.18877 20.8333 0.707647 21.5 1.09255L28.5 5.134C29.1667 5.5189 29.1667 6.48115 28.5 6.86605L21.5 10.9075C20.8333 11.2924 20 10.8113 20 10.0415L20 8.00002C20 7.44774 19.5523 7.00002 19 7.00002L0.999998 7.00002C0.447714 7.00002 -1.51476e-06 6.55231 -1.46648e-06 6.00002V6.00002C-1.4182e-06 5.44774 0.447714 5.00002 0.999999 5.00002L19 5.00002C19.5523 5.00002 20 4.55231 20 4.00002L20 1.95857Z" fill="#626E7A"/>
</svg>
