<svg width="38" height="12" viewBox="0 0 38 12" fill="none" xmlns="http://www.w3.org/2000/svg">
<path fill-rule="evenodd" clip-rule="evenodd" d="M9 10.0414C9 10.8112 8.16666 11.2924 7.5 10.9075L0.499999 6.866C-0.166667 6.4811 -0.166666 5.51885 0.500001 5.13395L7.5 1.0925C8.16667 0.707597 9 1.18872 9 1.95852L9 3.99998C9 4.55226 9.44772 4.99998 10 4.99998L28 4.99998C28.5523 4.99998 29 4.55226 29 3.99998V1.95852C29 1.18872 29.8333 0.707599 30.5 1.0925L37.5 5.13395C38.1667 5.51885 38.1667 6.4811 37.5 6.866L30.5 10.9075C29.8333 11.2924 29 10.8112 29 10.0414V7.99998C29 7.44769 28.5523 6.99998 28 6.99998L10 6.99998C9.44772 6.99998 9 7.44769 9 7.99998L9 10.0414Z" fill="#626E7A"/>
</svg>
