<svg width="90" height="90" viewBox="0 0 90 90" fill="none" xmlns="http://www.w3.org/2000/svg">
<path fill-rule="evenodd" clip-rule="evenodd" d="M44 29C42.3431 29 41 30.3431 41 32V46C41 47.6569 42.3431 49 44 49H58C59.6569 49 61 47.6569 61 46V42C61 40.3431 59.6569 39 58 39H51V32C51 30.3431 49.6569 29 48 29H44Z" fill="white"/>
<path fill-rule="evenodd" clip-rule="evenodd" d="M45 67C57.1503 67 67 57.1503 67 45C67 32.8497 57.1503 23 45 23C32.8497 23 23 32.8497 23 45C23 57.1503 32.8497 67 45 67ZM45 77C62.6731 77 77 62.6731 77 45C77 27.3269 62.6731 13 45 13C27.3269 13 13 27.3269 13 45C13 62.6731 27.3269 77 45 77Z" fill="white"/>
<path d="M5 45C5 22.9086 22.9086 5 45 5C67.0914 5 85 22.9086 85 45C85 67.0914 67.0914 85 45 85C22.9086 85 5 67.0914 5 45Z" fill="url(#paint0_radial_2502_5821)" fill-opacity="0.3"/>
<defs>
<radialGradient id="paint0_radial_2502_5821" cx="0" cy="0" r="1" gradientUnits="userSpaceOnUse" gradientTransform="translate(85 4.99999) rotate(135) scale(113.137 84.64)">
<stop stop-color="white" stop-opacity="0.67"/>
<stop offset="1" stop-color="white" stop-opacity="0.7"/>
</radialGradient>
</defs>
</svg>
