<svg width="24" height="24" viewBox="0 0 24 24" fill="none" xmlns="http://www.w3.org/2000/svg">
<g clip-path="url(#clip0_2502_5729)">
<path d="M20.5808 3.62582C19.953 2.9832 18.9501 2.97332 18.2233 3.50139L15.4249 5.53457C14.3257 6.33321 14.3257 7.97199 15.4249 8.77063L21.4245 13.1297C22.4963 13.9083 24.0002 13.3306 24.0002 12.0059V12.0059C24.0002 8.74834 22.6952 5.79012 20.5808 3.62582Z" fill="#626E7A"/>
<path d="M15.8073 3.51825C16.9616 2.67956 16.8701 0.945986 15.5058 0.528323C14.3963 0.188685 13.219 0.00585937 11.9997 0.00585938C10.0887 0.00585938 8.28086 0.455227 6.67573 1.25346C5.87298 1.65267 5.55584 2.60175 5.8329 3.45439L6.90408 6.75085C7.32398 8.04306 8.88254 8.54944 9.98176 7.75079L15.8073 3.51825Z" fill="#626E7A"/>
<path d="M5.10769 5.77212C4.66609 4.41314 2.98612 3.96601 2.1661 5.13623C0.801546 7.08352 0 9.45278 0 12.0058C0 12.5959 0.0429711 13.1762 0.125801 13.7436C0.255435 14.6317 1.06067 15.228 1.95819 15.228H5.42751C6.78626 15.228 7.74952 13.9022 7.32961 12.6099L5.10769 5.77212Z" fill="#626E7A"/>
<path d="M3.93684 16.6343C2.50752 16.6343 1.5644 18.0942 2.42707 19.2339C4.23403 21.621 6.91197 23.3139 9.98366 23.8356C10.8683 23.9859 11.6844 23.4042 11.9617 22.5508L13.0334 19.2523C13.4533 17.9601 12.49 16.6343 11.1313 16.6343H3.93684Z" fill="#626E7A"/>
<path d="M13.9085 21.1109C13.4674 22.4686 14.5619 23.8174 15.9111 23.351C18.8123 22.3481 21.2124 20.2619 22.6254 17.5782C23.044 16.7832 22.7434 15.8261 22.0166 15.298L19.2121 13.2604C18.1128 12.4618 16.5542 12.9682 16.1344 14.2604L13.9085 21.1109Z" fill="#626E7A"/>
</g>
<defs>
<clipPath id="clip0_2502_5729">
<rect width="24" height="24" fill="white"/>
</clipPath>
</defs>
</svg>
