<svg width="90" height="90" viewBox="0 0 90 90" fill="none" xmlns="http://www.w3.org/2000/svg">
<path fill-rule="evenodd" clip-rule="evenodd" d="M60 39.5001H30C27.2386 39.5001 25 41.7386 25 44.5001C25 47.2615 27.2386 49.5001 30 49.5001H60C62.7614 49.5001 65 47.2615 65 44.5001C65 41.7386 62.7614 39.5001 60 39.5001ZM30 29.5001C21.7157 29.5001 15 36.2158 15 44.5001C15 52.7843 21.7157 59.5001 30 59.5001H60C68.2843 59.5001 75 52.7843 75 44.5001C75 36.2158 68.2843 29.5001 60 29.5001H30Z" fill="white"/>
<path d="M37.5229 2.79938C42.1523 0.137509 47.8477 0.137511 52.4771 2.79939L77.4771 17.1744C82.131 19.8504 85 24.8095 85 30.178V58.8222C85 64.1906 82.131 69.1497 77.4771 71.8258L52.4771 86.2008C47.8477 88.8626 42.1523 88.8626 37.5229 86.2008L12.5229 71.8258C7.86899 69.1497 5 64.1906 5 58.8222V30.178C5 24.8095 7.869 19.8504 12.5229 17.1744L37.5229 2.79938Z" fill="url(#paint0_radial_2502_5838)" fill-opacity="0.3"/>
<path fill-rule="evenodd" clip-rule="evenodd" d="M76.9786 18.0413L51.9786 3.66629C47.6579 1.18188 42.3421 1.18187 38.0214 3.66629L13.0214 18.0413C8.67773 20.5389 6 25.1674 6 30.178V58.8222C6 63.8327 8.67772 68.4612 13.0214 70.9588L38.0214 85.3338C42.3421 87.8183 47.6579 87.8183 51.9786 85.3339L76.9786 70.9588C81.3223 68.4612 84 63.8327 84 58.8222V30.178C84 25.1674 81.3223 20.5389 76.9786 18.0413ZM52.4771 2.79939C47.8477 0.137511 42.1523 0.137509 37.5229 2.79938L12.5229 17.1744C7.869 19.8504 5 24.8095 5 30.178V58.8222C5 64.1906 7.86899 69.1497 12.5229 71.8258L37.5229 86.2008C42.1523 88.8626 47.8477 88.8626 52.4771 86.2008L77.4771 71.8258C82.131 69.1497 85 64.1906 85 58.8222V30.178C85 24.8095 82.131 19.8504 77.4771 17.1744L52.4771 2.79939Z" fill="url(#paint1_linear_2502_5838)"/>
<path d="M39.4446 36.7012C38.7271 37.1154 38.4813 38.0328 38.8955 38.7503L46.3955 51.7406C46.8098 52.4581 47.7271 52.7039 48.4446 52.2897C49.162 51.8755 49.4078 50.9581 48.9936 50.2406L41.4936 37.2502C41.0794 36.5328 40.162 36.287 39.4446 36.7012Z" fill="white"/>
<path d="M32.2129 36.7012C31.4955 37.1154 31.2497 38.0328 31.6639 38.7503L39.1639 51.7406C39.5781 52.4581 40.4955 52.7039 41.2129 52.2897C41.9303 51.8755 42.1762 50.9581 41.7619 50.2406L34.2619 37.2502C33.8477 36.5328 32.9303 36.287 32.2129 36.7012Z" fill="white"/>
<path d="M24.9817 36.7012C24.2643 37.1154 24.0184 38.0328 24.4327 38.7503L31.9327 51.7406C32.3469 52.4581 33.2643 52.7039 33.9817 52.2897C34.6991 51.8755 34.9449 50.9581 34.5307 50.2406L27.0307 37.2502C26.6165 36.5328 25.6991 36.287 24.9817 36.7012Z" fill="white"/>
<path d="M17.7503 36.7012C17.0328 37.1154 16.787 38.0328 17.2012 38.7503L24.7012 51.7406C25.1154 52.4581 26.0328 52.7039 26.7502 52.2897C27.4677 51.8755 27.7135 50.9581 27.2993 50.2406L19.7993 37.2502C19.3851 36.5328 18.4677 36.287 17.7503 36.7012Z" fill="white"/>
<path d="M46.2129 36.7012C45.4955 37.1154 45.2497 38.0328 45.6639 38.7503L50.6923 47.4597C51.1065 48.1771 52.0239 48.423 52.7413 48.0087C53.4587 47.5945 53.7046 46.6771 53.2903 45.9597L48.2619 37.2502C47.8477 36.5328 46.9303 36.287 46.2129 36.7012Z" fill="white"/>
<path d="M52 17.5C53.1046 17.5 54 18.3954 54 19.5L54 25.5C54 26.6046 53.1046 27.5 52 27.5C50.8954 27.5 50 26.6046 50 25.5V19.5C50 18.3954 50.8954 17.5 52 17.5Z" fill="white"/>
<path d="M52 35.5C53.1046 35.5 54 36.3954 54 37.5L54 51.5C54 52.6046 53.1046 53.5 52 53.5C50.8954 53.5 50 52.6046 50 51.5V37.5C50 36.3954 50.8954 35.5 52 35.5Z" fill="white"/>
<path d="M52 61.5C53.1046 61.5 54 62.3954 54 63.5L54 69.5C54 70.6046 53.1046 71.5 52 71.5C50.8954 71.5 50 70.6046 50 69.5V63.5C50 62.3954 50.8954 61.5 52 61.5Z" fill="white"/>
<defs>
<radialGradient id="paint0_radial_2502_5838" cx="0" cy="0" r="1" gradientUnits="userSpaceOnUse" gradientTransform="translate(85 -1.5) rotate(131.009) scale(121.918 90.3255)">
<stop stop-color="white" stop-opacity="0.67"/>
<stop offset="1" stop-color="white" stop-opacity="0.7"/>
</radialGradient>
<linearGradient id="paint1_linear_2502_5838" x1="5" y1="90.5001" x2="85" y2="90.5001" gradientUnits="userSpaceOnUse">
<stop stop-color="white" stop-opacity="0.3"/>
<stop offset="1" stop-color="white" stop-opacity="0.2"/>
</linearGradient>
</defs>
</svg>
