<svg width="90" height="90" viewBox="0 0 90 90" fill="none" xmlns="http://www.w3.org/2000/svg">
<path fill-rule="evenodd" clip-rule="evenodd" d="M41.2809 63.3897C41.9424 63.3214 42.5856 63.0338 43.0925 62.5269L67.1342 38.4853C68.3057 37.3137 68.3057 35.4142 67.1342 34.2426L60.7702 27.8787C59.5986 26.7071 57.6991 26.7071 56.5276 27.8787L40.9709 43.4354L32.4853 34.9498C31.3137 33.7782 29.4142 33.7782 28.2426 34.9498L21.8787 41.3138C20.7071 42.4854 20.7071 44.3848 21.8787 45.5564L38.8492 62.527C39.5141 63.1918 40.4133 63.4794 41.2809 63.3897Z" fill="white"/>
<path d="M5 20C5 11.7157 11.7157 5 20 5H70C78.2843 5 85 11.7157 85 20V70C85 78.2843 78.2843 85 70 85H20C11.7157 85 5 78.2843 5 70V20Z" fill="url(#paint0_radial_2502_5811)" fill-opacity="0.3"/>
<path fill-rule="evenodd" clip-rule="evenodd" d="M70 6H20C12.268 6 6 12.268 6 20V70C6 77.732 12.268 84 20 84H70C77.732 84 84 77.732 84 70V20C84 12.268 77.732 6 70 6ZM20 5C11.7157 5 5 11.7157 5 20V70C5 78.2843 11.7157 85 20 85H70C78.2843 85 85 78.2843 85 70V20C85 11.7157 78.2843 5 70 5H20Z" fill="url(#paint1_linear_2502_5811)"/>
<defs>
<radialGradient id="paint0_radial_2502_5811" cx="0" cy="0" r="1" gradientUnits="userSpaceOnUse" gradientTransform="translate(85 4.99999) rotate(135) scale(113.137 84.64)">
<stop stop-color="white" stop-opacity="0.67"/>
<stop offset="1" stop-color="white" stop-opacity="0.7"/>
</radialGradient>
<linearGradient id="paint1_linear_2502_5811" x1="5" y1="85" x2="85" y2="85" gradientUnits="userSpaceOnUse">
<stop stop-color="white" stop-opacity="0.3"/>
<stop offset="1" stop-color="white" stop-opacity="0.2"/>
</linearGradient>
</defs>
</svg>
