<svg width="90" height="90" viewBox="0 0 90 90" fill="none" xmlns="http://www.w3.org/2000/svg">
<path d="M40.7539 26.3294C42.7103 23.1828 47.2899 23.1828 49.2463 26.3294L52.3025 31.2449C52.9908 32.352 54.0843 33.1464 55.3499 33.459L60.9692 34.8466C64.5664 35.7349 65.9815 40.0904 63.5935 42.9233L59.8631 47.3489C59.0229 48.3457 58.6052 49.6312 58.699 50.9314L59.1157 56.7045C59.3825 60.4001 55.6775 63.0919 52.2453 61.6962L46.8835 59.5159C45.6759 59.0248 44.3243 59.0248 43.1167 59.5159L37.7549 61.6962C34.3226 63.0919 30.6177 60.4001 30.8844 56.7045L31.3012 50.9314C31.395 49.6312 30.9773 48.3457 30.1371 47.3489L26.4067 42.9233C24.0186 40.0904 25.4338 35.7349 29.0309 34.8466L34.6502 33.459C35.9159 33.1464 37.0094 32.352 37.6977 31.2449L40.7539 26.3294Z" fill="white"/>
<path d="M37.186 5.91691C41.7278 2.1872 48.2724 2.1872 52.8142 5.91691C55.2107 7.88487 58.2614 8.87613 61.3569 8.69262C67.2236 8.34483 72.5183 12.1916 74.0004 17.8786C74.7825 20.8794 76.6679 23.4745 79.2801 25.1455C84.2308 28.3125 86.2532 34.5368 84.1095 40.0088C82.9784 42.8961 82.9784 46.1039 84.1095 48.9912C86.2532 54.4633 84.2308 60.6875 79.2801 63.8545C76.6679 65.5256 74.7825 68.1207 74.0004 71.1214C72.5183 76.8084 67.2236 80.6552 61.3569 80.3074C58.2614 80.1239 55.2107 81.1152 52.8142 83.0831C48.2724 86.8128 41.7278 86.8128 37.186 83.0831C34.7895 81.1152 31.7388 80.1239 28.6432 80.3074C22.7766 80.6552 17.4819 76.8084 15.9998 71.1214C15.2177 68.1207 13.3322 65.5256 10.7201 63.8545C5.7694 60.6875 3.74702 54.4633 5.89068 48.9912C7.02178 46.1039 7.02178 42.8961 5.89068 40.0088C3.74702 34.5368 5.7694 28.3125 10.7201 25.1455C13.3322 23.4745 15.2177 20.8794 15.9998 17.8786C17.4819 12.1916 22.7766 8.34483 28.6432 8.69262C31.7388 8.87613 34.7895 7.88487 37.186 5.91691Z" fill="url(#paint0_radial_2502_5842)" fill-opacity="0.3"/>
<path fill-rule="evenodd" clip-rule="evenodd" d="M37.8206 6.68973C35.2295 8.81752 31.931 9.88928 28.5841 9.69087C23.1939 9.37133 18.3292 12.9057 16.9674 18.1308C16.1219 21.3753 14.0833 24.1812 11.2589 25.9879C6.71035 28.8977 4.85222 34.6164 6.82179 39.6441C8.04474 42.7659 8.04474 46.2342 6.82179 49.356C4.85222 54.3836 6.71035 60.1024 11.2589 63.0121C14.0833 64.8189 16.1219 67.6248 16.9674 70.8692C18.3292 76.0943 23.1939 79.6287 28.5841 79.3092C31.931 79.1108 35.2295 80.1825 37.8206 82.3103C41.9936 85.7371 48.0066 85.7371 52.1796 82.3103C54.7707 80.1825 58.0692 79.1108 61.4161 79.3092C66.8063 79.6287 71.671 76.0943 73.0327 70.8692C73.8783 67.6248 75.9169 64.8189 78.7412 63.0121C83.2898 60.1024 85.148 54.3836 83.1784 49.356C81.9554 46.2342 81.9554 42.7659 83.1784 39.6441C85.148 34.6164 83.2898 28.8977 78.7412 25.9879C75.9169 24.1812 73.8783 21.3753 73.0327 18.1308C71.671 12.9057 66.8063 9.37133 61.4161 9.69087C58.0692 9.88928 54.7707 8.81752 52.1796 6.68973C48.0066 3.26293 41.9936 3.26293 37.8206 6.68973ZM52.8142 5.91691C48.2724 2.1872 41.7278 2.1872 37.186 5.91691C34.7895 7.88487 31.7388 8.87613 28.6432 8.69262C22.7766 8.34483 17.4819 12.1916 15.9998 17.8786C15.2177 20.8794 13.3322 23.4745 10.7201 25.1455C5.7694 28.3125 3.74702 34.5368 5.89068 40.0088C7.02178 42.8961 7.02178 46.1039 5.89068 48.9912C3.74702 54.4633 5.7694 60.6875 10.7201 63.8545C13.3322 65.5256 15.2177 68.1207 15.9998 71.1214C17.4819 76.8084 22.7766 80.6552 28.6432 80.3074C31.7388 80.1239 34.7895 81.1152 37.186 83.0831C41.7278 86.8128 48.2724 86.8128 52.8142 83.0831C55.2107 81.1152 58.2614 80.1239 61.3569 80.3074C67.2236 80.6552 72.5183 76.8084 74.0004 71.1214C74.7825 68.1207 76.6679 65.5256 79.2801 63.8545C84.2308 60.6875 86.2532 54.4633 84.1095 48.9912C82.9784 46.1039 82.9784 42.8961 84.1095 40.0088C86.2532 34.5368 84.2308 28.3125 79.2801 25.1455C76.6679 23.4745 74.7825 20.8794 74.0004 17.8786C72.5183 12.1916 67.2236 8.34483 61.3569 8.69262C58.2614 8.87613 55.2107 7.88487 52.8142 5.91691Z" fill="url(#paint1_linear_2502_5842)"/>
<defs>
<radialGradient id="paint0_radial_2502_5842" cx="0" cy="0" r="1" gradientUnits="userSpaceOnUse" gradientTransform="translate(90 -0.500005) rotate(135) scale(127.279 95.2199)">
<stop stop-color="white" stop-opacity="0.67"/>
<stop offset="1" stop-color="white" stop-opacity="0.7"/>
</radialGradient>
<linearGradient id="paint1_linear_2502_5842" x1="9.21878e-05" y1="89.5" x2="90.0001" y2="89.5" gradientUnits="userSpaceOnUse">
<stop stop-color="white" stop-opacity="0.3"/>
<stop offset="1" stop-color="white" stop-opacity="0.2"/>
</linearGradient>
</defs>
</svg>
