<svg width="90" height="90" viewBox="0 0 90 90" fill="none" xmlns="http://www.w3.org/2000/svg">
<path d="M41.8268 7.1059C43.6712 5.59133 46.3288 5.59133 48.1731 7.10589L53.7456 11.682C54.7187 12.4811 55.9576 12.8836 57.2146 12.8091L64.4126 12.3824C66.7949 12.2412 68.945 13.8033 69.5469 16.1127L71.3653 23.0902C71.6829 24.3088 72.4486 25.3626 73.5093 26.0412L79.5834 29.9268C81.5938 31.2129 82.415 33.7404 81.5445 35.9625L78.9144 42.6763C78.4551 43.8488 78.4551 45.1514 78.9144 46.3239L81.5445 53.0377C82.415 55.2598 81.5938 57.7874 79.5834 59.0734L73.5093 62.9591C72.4486 63.6376 71.6829 64.6915 71.3653 65.91L69.5469 72.8876C68.945 75.1969 66.7949 76.759 64.4126 76.6178L57.2146 76.1911C55.9576 76.1166 54.7187 76.5191 53.7456 77.3183L48.1731 81.8943C46.3288 83.4089 43.6712 83.4089 41.8268 81.8943L36.2543 77.3183C35.2812 76.5191 34.0423 76.1166 32.7853 76.1911L25.5873 76.6178C23.205 76.759 21.0549 75.1969 20.4531 72.8876L18.6346 65.91C18.317 64.6915 17.5514 63.6376 16.4906 62.9591L10.4165 59.0734C8.40614 57.7874 7.58488 55.2598 8.45538 53.0377L11.0855 46.3239C11.5448 45.1514 11.5448 43.8488 11.0855 42.6763L8.45539 35.9625C7.58488 33.7404 8.40613 31.2129 10.4165 29.9268L16.4906 26.0412C17.5514 25.3626 18.317 24.3088 18.6346 23.0902L20.4531 16.1127C21.0549 13.8033 23.205 12.2412 25.5873 12.3824L32.7853 12.8091C34.0423 12.8836 35.2812 12.4811 36.2543 11.682L41.8268 7.1059Z" fill="url(#paint0_linear_2502_5843)"/>
<defs>
<linearGradient id="paint0_linear_2502_5843" x1="8.11035" y1="44.5001" x2="81.8896" y2="44.5001" gradientUnits="userSpaceOnUse">
<stop stop-color="#FF0844"/>
<stop offset="1" stop-color="#FFB199"/>
</linearGradient>
</defs>
</svg>
