<svg width="90" height="90" viewBox="0 0 90 90" fill="none" xmlns="http://www.w3.org/2000/svg">
<path fill-rule="evenodd" clip-rule="evenodd" d="M54.9999 54H47.9999C46.8953 54 45.9999 54.8955 45.9999 56V63C45.9999 64.1046 46.8953 65 47.9999 65H54.9999C56.1044 65 56.9999 64.1046 56.9999 63V56C56.9999 54.8955 56.1044 54 54.9999 54ZM47.9999 46C42.477 46 37.9999 50.4772 37.9999 56V63C37.9999 68.5229 42.477 73 47.9999 73H54.9999C60.5227 73 64.9999 68.5229 64.9999 63V56C64.9999 50.4772 60.5227 46 54.9999 46H47.9999Z" fill="white"/>
<path fill-rule="evenodd" clip-rule="evenodd" d="M34.9999 33C29.477 33 24.9999 37.4772 24.9999 43V50.2728C24.9999 55.4581 28.9465 59.7217 33.9999 60.2234V56C33.9999 48.268 40.2679 42 47.9999 42H52.2232C51.7215 36.9467 47.4579 33 42.2726 33H34.9999Z" fill="white"/>
<path d="M32.0185 11.9225C37.7959 1.94317 52.2038 1.94316 57.9813 11.9224L86.9646 61.9845C92.754 71.9845 85.5381 84.5 73.9832 84.5H16.0166C4.46159 84.5 -2.75429 71.9845 3.03518 61.9845L32.0185 11.9225Z" fill="url(#paint0_radial_2502_5832)" fill-opacity="0.3"/>
<path fill-rule="evenodd" clip-rule="evenodd" d="M86.0991 62.4855L57.1158 12.4235C51.7235 3.10949 38.2762 3.10949 32.8839 12.4235L3.90061 62.4855C-1.50289 71.8188 5.23192 83.5 16.0166 83.5H73.9832C84.7678 83.5 91.5026 71.8188 86.0991 62.4855ZM57.9813 11.9224C52.2038 1.94316 37.7959 1.94317 32.0185 11.9225L3.03518 61.9845C-2.75429 71.9845 4.46159 84.5 16.0166 84.5H73.9832C85.5381 84.5 92.754 71.9845 86.9646 61.9845L57.9813 11.9224Z" fill="url(#paint1_linear_2502_5832)"/>
<defs>
<radialGradient id="paint0_radial_2502_5832" cx="0" cy="0" r="1" gradientUnits="userSpaceOnUse" gradientTransform="translate(100 -10.5) rotate(139.185) scale(145.344 107.577)">
<stop stop-color="white" stop-opacity="0.67"/>
<stop offset="1" stop-color="white" stop-opacity="0.7"/>
</radialGradient>
<linearGradient id="paint1_linear_2502_5832" x1="-10.0001" y1="84.5" x2="99.9999" y2="84.5" gradientUnits="userSpaceOnUse">
<stop stop-color="white" stop-opacity="0.3"/>
<stop offset="1" stop-color="white" stop-opacity="0.2"/>
</linearGradient>
</defs>
</svg>
