<svg width="24" height="24" viewBox="0 0 24 24" fill="none" xmlns="http://www.w3.org/2000/svg">
<path fill-rule="evenodd" clip-rule="evenodd" d="M11.6604 1.77778C6.17462 1.77778 1.72747 6.35442 1.72747 12C1.72747 17.3375 5.70251 21.7196 10.7722 22.1819C11.2611 22.2265 11.6604 22.6202 11.6604 23.1111V23.1111C11.6604 23.602 11.2611 24.0036 10.7716 23.9657C4.74698 23.4983 0 18.3197 0 12C0 5.37258 5.22056 0 11.6604 0C14.6336 0 17.3476 1.14599 19.4066 3.03036C19.7042 3.30273 20.1293 3.39671 20.5042 3.24781L22.3801 2.50284C23.0978 2.21783 23.854 2.81923 23.7378 3.58265L22.7233 10.2507C22.6063 11.0198 21.6944 11.3666 21.0959 10.8696L15.9918 6.63141C15.4077 6.14638 15.5559 5.21291 16.2616 4.93268L16.5674 4.81123C17.2625 4.53516 17.4101 3.62831 16.7742 3.23451C15.2803 2.30938 13.5309 1.77778 11.6604 1.77778Z" fill="#626E7A"/>
</svg>
